HIERARCHY
ROOT Hips
{
  OFFSET 0 0.240689 0
  CHANNELS 6 Xposition Yposition Zposition Zrotation Xrotation Yrotation
  JOINT Bip01_Spine0
  {
    OFFSET 0 -24.7459 49.7988
    CHANNELS 6 Xposition Yposition Zposition Zrotation Xrotation Yrotation
    JOINT Bip01_Pelvis
    {
      OFFSET 0 0 0
      CHANNELS 6 Xposition Yposition Zposition Zrotation Xrotation Yrotation
      JOINT Bip01_Spine0_Tail
      {
        OFFSET -6.47486 -3.86022 0
        CHANNELS 6 Xposition Yposition Zposition Zrotation Xrotation Yrotation
        JOINT Bip01_Spine0_Tail1
        {
          OFFSET 10.3837 -0.00825882 0
          CHANNELS 6 Xposition Yposition Zposition Zrotation Xrotation Yrotation
          JOINT Bip01_Spine0_Tail2
          {
            OFFSET 10.3837 -0.00826263 0
            CHANNELS 6 Xposition Yposition Zposition Zrotation Xrotation Yrotation
            JOINT Bip01_Spine0_Tail3
            {
              OFFSET 10.3837 -0.00825882 0
              CHANNELS 6 Xposition Yposition Zposition Zrotation Xrotation Yrotation
              JOINT Bip01_Spine0_Tail4
              {
                OFFSET 10.3837 -0.00826263 0
                CHANNELS 6 Xposition Yposition Zposition Zrotation Xrotation Yrotation
                End Site
                {
                  OFFSET 0 0 0
                }
              }
            }
          }
        }
      }
      JOINT Bip01_R_Thigh
      {
        OFFSET 0 -1.52588e-005 -8.75617
        CHANNELS 6 Xposition Yposition Zposition Zrotation Xrotation Yrotation
        JOINT Bip01_R_Calf
        {
          OFFSET 19.7638 0 0
          CHANNELS 6 Xposition Yposition Zposition Zrotation Xrotation Yrotation
          JOINT Bip01_R_Foot
          {
            OFFSET 18.6534 0 0
            CHANNELS 6 Xposition Yposition Zposition Zrotation Xrotation Yrotation
            JOINT Bip01_R_Toe0
            {
              OFFSET 5.09145 13.9567 0
              CHANNELS 6 Xposition Yposition Zposition Zrotation Xrotation Yrotation
              JOINT Bip01_R_Toe01
              {
                OFFSET 4.28803 0 0
                CHANNELS 6 Xposition Yposition Zposition Zrotation Xrotation Yrotation
                JOINT Bip01_R_Toe02
                {
                  OFFSET 3.85801 0 0
                  CHANNELS 6 Xposition Yposition Zposition Zrotation Xrotation Yrotation
                  End Site
                  {
                    OFFSET 0 0 0
                  }
                }
              }
            }
          }
        }
      }
      JOINT Bip01_L_Thigh
      {
        OFFSET 0 1.52588e-005 8.75617
        CHANNELS 6 Xposition Yposition Zposition Zrotation Xrotation Yrotation
        JOINT Bip01_L_Calf
        {
          OFFSET 19.7638 0 0
          CHANNELS 6 Xposition Yposition Zposition Zrotation Xrotation Yrotation
          JOINT Bip01_L_Foot
          {
            OFFSET 18.6534 0 0
            CHANNELS 6 Xposition Yposition Zposition Zrotation Xrotation Yrotation
            JOINT Bip01_L_Toe0
            {
              OFFSET 5.09144 13.9567 0
              CHANNELS 6 Xposition Yposition Zposition Zrotation Xrotation Yrotation
              JOINT Bip01_L_Toe01
              {
                OFFSET 4.28802 0 0
                CHANNELS 6 Xposition Yposition Zposition Zrotation Xrotation Yrotation
                JOINT Bip01_L_Toe02
                {
                  OFFSET 3.85801 0 0
                  CHANNELS 6 Xposition Yposition Zposition Zrotation Xrotation Yrotation
                  End Site
                  {
                    OFFSET 0 0 0
                  }
                }
              }
            }
          }
        }
      }
      JOINT Bip01_Spine
      {
        OFFSET 9.14835 -0.00640869 -1.1e-005
        CHANNELS 6 Xposition Yposition Zposition Zrotation Xrotation Yrotation
        JOINT Bip01_Spine1
        {
          OFFSET 8.04366 -0.00638199 0
          CHANNELS 6 Xposition Yposition Zposition Zrotation Xrotation Yrotation
          JOINT Bip01_Spine2
          {
            OFFSET 8.04367 -0.00639343 0
            CHANNELS 6 Xposition Yposition Zposition Zrotation Xrotation Yrotation
            JOINT Bip01_Spine3
            {
              OFFSET 8.04304 -0.00831222 0
              CHANNELS 6 Xposition Yposition Zposition Zrotation Xrotation Yrotation
              JOINT Bip01_Neck
              {
                OFFSET 10.6685 1.06813 0
                CHANNELS 6 Xposition Yposition Zposition Zrotation Xrotation Yrotation
                JOINT Bip01_R_Clavicle
                {
                  OFFSET -3.21661 -4.89635 -9.04802
                  CHANNELS 6 Xposition Yposition Zposition Zrotation Xrotation Yrotation
                  JOINT Bip01_R_UpperArm
                  {
                    OFFSET 19.0492 0 0
                    CHANNELS 6 Xposition Yposition Zposition Zrotation Xrotation Yrotation
                    JOINT Bip01_R_Forearm
                    {
                      OFFSET 10.3706 0 0
                      CHANNELS 6 Xposition Yposition Zposition Zrotation Xrotation Yrotation
                      JOINT Bip01_R_Hand
                      {
                        OFFSET 22.8632 0 0
                        CHANNELS 6 Xposition Yposition Zposition Zrotation Xrotation Yrotation
                        JOINT Bip01_R_Finger0
                        {
                          OFFSET 6.48259 0.103651 0.504496
                          CHANNELS 6 Xposition Yposition Zposition Zrotation Xrotation Yrotation
                          JOINT Bip01_R_Finger01
                          {
                            OFFSET 3.66847 0 0
                            CHANNELS 6 Xposition Yposition Zposition Zrotation Xrotation Yrotation
                            End Site
                            {
                              OFFSET 0 0 0
                            }
                          }
                        }
                      }
                    }
                  }
                }
                JOINT Bip01_L_Clavicle
                {
                  OFFSET -3.21661 -4.89641 9.04797
                  CHANNELS 6 Xposition Yposition Zposition Zrotation Xrotation Yrotation
                  JOINT Bip01_L_UpperArm
                  {
                    OFFSET 19.0492 0 0
                    CHANNELS 6 Xposition Yposition Zposition Zrotation Xrotation Yrotation
                    JOINT Bip01_L_Forearm
                    {
                      OFFSET 10.3706 0 0
                      CHANNELS 6 Xposition Yposition Zposition Zrotation Xrotation Yrotation
                      JOINT Bip01_L_Hand
                      {
                        OFFSET 22.8631 0 0
                        CHANNELS 6 Xposition Yposition Zposition Zrotation Xrotation Yrotation
                        JOINT Bip01_L_Finger0
                        {
                          OFFSET 6.48257 0.103655 -0.504492
                          CHANNELS 6 Xposition Yposition Zposition Zrotation Xrotation Yrotation
                          JOINT Bip01_L_Finger01
                          {
                            OFFSET 3.66844 0 0
                            CHANNELS 6 Xposition Yposition Zposition Zrotation Xrotation Yrotation
                            End Site
                            {
                              OFFSET 0 0 0
                            }
                          }
                        }
                      }
                    }
                  }
                }
                JOINT Bip01_Neck1
                {
                  OFFSET 7.52459 -0.00656509 0
                  CHANNELS 6 Xposition Yposition Zposition Zrotation Xrotation Yrotation
                  JOINT Bip01_Neck2
                  {
                    OFFSET 8.4783 -0.00588226 0
                    CHANNELS 6 Xposition Yposition Zposition Zrotation Xrotation Yrotation
                    JOINT Bip01_Head
                    {
                      OFFSET 8.41606 0 0
                      CHANNELS 6 Xposition Yposition Zposition Zrotation Xrotation Yrotation
                      JOINT EyesBlue
                      {
                        OFFSET 0 0 0
                        CHANNELS 6 Xposition Yposition Zposition Zrotation Xrotation Yrotation
                        JOINT EyesBlue_2
                        {
                          OFFSET 0 -0.500007 0
                          CHANNELS 6 Xposition Yposition Zposition Zrotation Xrotation Yrotation
                          End Site
                          {
                            OFFSET 0 0 0
                          }
                        }
                      }
                      JOINT Bip01_Head2_Eyeleds
                      {
                        OFFSET 6.52751 7.61746 2.2e-005
                        CHANNELS 6 Xposition Yposition Zposition Zrotation Xrotation Yrotation
                        End Site
                        {
                          OFFSET 0 0 0
                        }
                      }
                      JOINT Bip01_Head_Muzzle
                      {
                        OFFSET 2.88628 13.9448 3.88994
                        CHANNELS 6 Xposition Yposition Zposition Zrotation Xrotation Yrotation
                        End Site
                        {
                          OFFSET 0 0 0
                        }
                      }
                      JOINT Bip01_Head1_Jaw
                      {
                        OFFSET 0.271065 1.32405 0
                        CHANNELS 6 Xposition Yposition Zposition Zrotation Xrotation Yrotation
                        JOINT _Bip01_Head11_TungeControler
                        {
                          OFFSET 4.61616 5.82872 0
                          CHANNELS 6 Xposition Yposition Zposition Zrotation Xrotation Yrotation
                          JOINT _Bip01_Ponytail3_tunge
                          {
                            OFFSET 5.17785 2.98805 0
                            CHANNELS 6 Xposition Yposition Zposition Zrotation Xrotation Yrotation
                            JOINT Bip01_Ponytail31
                            {
                              OFFSET 5.57569 0 0
                              CHANNELS 6 Xposition Yposition Zposition Zrotation Xrotation Yrotation
                              JOINT Bip01_Ponytail32
                              {
                                OFFSET 2.93165 0 0
                                CHANNELS 6 Xposition Yposition Zposition Zrotation Xrotation Yrotation
                                JOINT Bip01_Ponytail3Nub
                                {
                                  OFFSET 3.30155 0 0
                                  CHANNELS 6 Xposition Yposition Zposition Zrotation Xrotation Yrotation
                                  End Site
                                  {
                                    OFFSET 0 0 0
                                  }
                                }
                              }
                            }
                          }
                        }
                        JOINT Bip01_Head_JawNub
                        {
                          OFFSET 15.5776 -0.000389099 0
                          CHANNELS 6 Xposition Yposition Zposition Zrotation Xrotation Yrotation
                          End Site
                          {
                            OFFSET 0 0 0
                          }
                        }
                      }
                      JOINT Bip01_Ponytail2
                      {
                        OFFSET 9.40334 1.03973 -6.51764
                        CHANNELS 6 Xposition Yposition Zposition Zrotation Xrotation Yrotation
                        JOINT Bip01_Ponytail21
                        {
                          OFFSET 2.77018 -0.00640106 1.33514e-005
                          CHANNELS 6 Xposition Yposition Zposition Zrotation Xrotation Yrotation
                          End Site
                          {
                            OFFSET 0 0 0
                          }
                        }
                      }
                      JOINT Bip01_Ponytail1
                      {
                        OFFSET 9.40368 1.03969 6.51768
                        CHANNELS 6 Xposition Yposition Zposition Zrotation Xrotation Yrotation
                        JOINT Bip01_Ponytail11
                        {
                          OFFSET 2.77018 -0.00640487 0
                          CHANNELS 6 Xposition Yposition Zposition Zrotation Xrotation Yrotation
                          End Site
                          {
                            OFFSET 0 0 0
                          }
                        }
                      }
                    }
                  }
                }
              }
            }
          }
        }
      }
    }
  }
}
MOTION
Frames:	4
Frame Time:	0.0333333
0 0.240689 -4e-006 90 -42.501 90 4.21358 -28.7019 47.2238 89.8066 -1.99088 84.4582 0 0 0 -82.3756 0.609931 -85.404 -6.45246 -3.89652 -0.00508669 122.146 3.43889 7.78877 10.3787 -0.006904 7e-005 -26.5119 -0.736072 -0.131254 10.3831 -0.008102 0.000461 4.21615 -2.76771 3.08372 10.3906 -0.003787 0.000495 32.4832 -3.54598 10.8222 10.3905 -0.004032 0.00057 47.3446 -1.24836 9.22209 9.00002e-006 -1.08622e-005 -8.75617 -123.839 5.89888 -171.291 19.7638 4.44089e-015 -4.44089e-015 -81.0017 0.000278168 0.00353208 18.6534 3e-006 -4.04121e-014 -23.7137 4.46608 -7.47557 5.09143 13.9567 -9.00593e-008 100.75 -2.44439 -3.73758 4.288 7.10543e-015 7.10543e-015 68.7868 -2.53239e-005 1.04236e-005 3.85799 -1.77636e-015 -1.77636e-015 -41.0075 -6.99339e-006 9.34294e-006 -1.3e-005 1.48622e-005 8.75617 -118.624 23.3152 167.381 19.7638 -2e-006 -2.66454e-014 -63.1341 0.000871866 0.00250196 18.6534 3.55271e-015 -3.55271e-015 -21.4603 -4.29037 5.91817 5.09144 13.9567 -2.0704e-007 98.5822 -2.24012 9.3168 4.288 0 -1.77636e-015 51.5 1.88331e-006 2.03322e-006 3.85799 -1.28786e-014 4.44089e-016 -45 -1.12709e-005 -1.40912e-005 9.1183 0.0918021 0.733557 1.19889 -6.35423 1.88834 8.04389 -0.006275 -1.2e-005 3.06746 0.662866 -10.1571 8.04371 -0.006282 -1.5e-005 1.50998 1.24418 -6.66552 8.04401 -0.008338 1.50001e-005 3.20098 0.321363 -7.61444 10.669 1.06808 0.000228984 -7.63249 -0.867279 -7.89301 -4.9005 -4.41849 -8.52374 162.185 -72.4816 88.3146 19.0492 2e-006 -7e-006 67.107 -39.2784 -105.852 10.3706 -7e-006 -2.07834e-013 -113.3 -0.000286835 0.00147345 22.8631 -9.59232e-014 1e-006 37.8941 11.0296 12.8771 6.48256 0.103651 0.504495 -49.3186 -7.92362 -13.3553 3.66843 -2.43361e-013 2e-006 40.107 7.68018e-006 7.73907e-006 -2.41524 -4.69236 9.39856 -137.006 76.8222 -136.739 19.0492 1.24345e-014 1e-006 74.9892 -18.7502 101.909 10.3706 1e-006 -1e-006 -61.8159 0.000322002 0.0012892 22.8631 -3e-006 -1e-006 -19.6069 16.1203 -8.22939 6.48255 0.103651 -0.504495 -83.3487 -1.0969 15.4632 3.66843 -1e-006 -1e-006 40.107 2.15727e-005 -9.13304e-006 7.52763 -0.006553 -0.000231 8.18683 2.75235 2.08203 8.47716 -0.006332 0.000396 11.9383 -0.85822 -13.0437 8.41604 -3e-006 5.32907e-015 -78.8084 16.1332 -13.575 -3e-006 3e-006 -5e-006 -23.1098 1.37701e-015 90 -9.49146e-006 -0.500002 -1.6388e-005 -180 90 -90 0 0 0 -113.549 -7.01671e-015 -180 2.8863 13.9448 3.88994 -22.989 1.3702e-015 90 0 0 0 -85.3358 -7.01671e-015 -180 0 0 0 -120.289 7.28659e-007 -1.93194e-005 0 0 0 133.74 -2.03168e-005 5.49551e-006 0 0 0 1.83152 -9.20172e-008 -5.19902e-008 0 0 0 -17.65 1.02095e-006 5.20866e-007 0 0 0 -26.1943 1.3205e-006 2.7194e-007 15.5776 -0.0004 -6.00001e-006 -1.78906e-015 7.95139e-016 -0 9.4038 1.03964 -6.51623 -5.81501 -20.044 19.579 2.77015 -0.006069 0.002033 2.27049 -18.5263 -1.10909 9.40416 1.0396 6.51626 -5.81488 20.0469 -19.5775 2.77014 -0.006067 -0.002031 2.27029 18.5289 1.11098 
0 0.240689 -4e-006 90 -37.5308 90 4.21358 -28.7019 47.2996 89.8066 -1.99088 84.4582 0 0 0 -81.0624 0.782912 -84.8925 -6.44848 -3.9031 0.025547 123.502 3.82835 9.23586 10.3787 -0.006904 7e-005 -26.9549 -0.71173 -0.779641 10.3831 -0.008102 0.000461 3.89086 -2.75835 2.03218 10.3906 -0.003787 0.000495 32.337 -5.67636 11.9259 10.3905 -0.004032 0.00057 48.1896 -1.26811 7.05093 9.00006e-006 -1.08391e-005 -8.75617 -123.766 7.43527 -172.596 19.7638 -8.88178e-016 -2.66454e-015 -81.8527 0.000251476 0.00353223 18.6534 3e-006 -3.81917e-014 -22.8205 4.44903 -6.19749 5.09143 13.9567 -5.2917e-008 100.75 -2.53863 -3.66046 4.288 -1.06581e-014 0 68.7868 -2.4757e-005 1.02525e-005 3.85799 9.76996e-015 -1.77636e-015 -41.0075 -7.11466e-006 9.01452e-006 -1.30001e-005 1.48391e-005 8.75617 -117.835 25.5487 167.351 19.7638 -2e-006 -2.66454e-014 -63.9688 0.00083505 0.00251446 18.6534 0 -3.55271e-015 -20.6712 -3.13484 5.83458 5.09144 13.9567 -1.22047e-007 98.2877 -1.0695 8.98995 4.288 5.32907e-015 8.88179e-016 51.5 1.80927e-006 1.70772e-006 3.85799 -9.32587e-015 4.88498e-015 -45 -1.15606e-005 -1.38115e-005 9.11112 0.119247 0.815097 1.58496 -7.28662 1.52317 8.04389 -0.006275 -1.2e-005 3.07108 0.987879 -10.0745 8.04371 -0.006282 -1.5e-005 1.49402 1.56876 -6.58237 8.04401 -0.008338 1.50001e-005 3.19004 0.645582 -7.53122 10.669 1.06808 0.000228986 -8.0548 -0.850184 -7.95525 -4.8763 -4.44827 -8.52214 160.496 -73.53 89.9589 19.0492 2e-006 -7e-006 69.4616 -29.8972 -112.77 10.3706 -7e-006 -1.42109e-014 -101.426 -0.000137932 0.00146726 22.8631 -6.39488e-014 1e-006 27.4195 0.367026 13.5449 6.48256 0.103651 0.504495 -60.2889 -5.20276 -14.6121 3.66843 -2.27374e-013 2e-006 40.107 6.89638e-006 7.727e-006 -2.37153 -4.7168 9.39755 -138.087 76.2413 -135.665 19.0492 3.55271e-015 1e-006 72.0133 -20.393 102.951 10.3706 1e-006 -1e-006 -59.1389 0.000355917 0.00128898 22.8631 -3e-006 -1e-006 -19.049 16.4716 -5.46684 6.48255 0.103651 -0.504495 -77.8016 0.44048 15.495 3.66843 -1e-006 -1e-006 40.107 1.73693e-005 -6.95127e-006 7.52763 -0.006553 -0.000231 7.8761 2.74102 2.09692 8.47716 -0.006332 0.000396 12.419 -0.969484 -13.0358 8.41604 -3e-006 -2.66454e-015 -77.6163 15.1849 -14.6096 -3e-006 3e-006 -5e-006 -23.1098 1.37701e-015 90 -9.49115e-006 -0.500002 -1.63936e-005 -180 90 -90 0 0 0 -113.549 -7.01671e-015 -180 2.8863 13.9448 3.88994 -22.989 1.3702e-015 90 0 0 0 -85.3358 -7.01671e-015 -180 0 0 0 -120.289 1.12162e-006 -1.91879e-005 0 0 0 133.74 -2.04923e-005 5.83489e-006 0 0 0 1.83152 -1.33468e-007 -6.79795e-008 0 0 0 -17.65 1.4473e-006 6.85042e-007 0 0 0 -26.1943 1.77028e-006 3.11511e-007 15.5776 -0.0004 -6.00001e-006 -3.97569e-016 1.59028e-015 3.18055e-015 9.4038 1.03964 -6.51623 -5.81512 -20.0442 19.676 2.77015 -0.006069 0.002033 2.27101 -18.5217 -1.01206 9.40416 1.0396 6.51626 -5.815 20.0469 -19.674 2.77014 -0.006067 -0.002031 2.27053 18.5243 1.01455 
0 0.240689 -4e-006 90 -32.6428 90 4.21358 -28.7019 47.4282 89.8066 -1.99088 84.4582 0 0 0 -80.0572 0.936887 -84.3906 -6.44484 -3.90905 0.0365656 125.676 4.19655 10.4368 10.3787 -0.006904 7e-005 -27.6734 -0.66333 -1.80961 10.3831 -0.008102 0.000461 3.36321 -2.73212 0.359908 10.3906 -0.003787 0.000495 32.3069 -8.39194 12.8989 10.3905 -0.004032 0.00057 49.5596 -1.35598 3.60128 9.00015e-006 -1.08219e-005 -8.75617 -123.529 8.89125 -173.759 19.7638 1.77636e-015 -6.21725e-015 -82.3596 0.000235589 0.00353238 18.6534 3e-006 -2.30926e-014 -22.0951 4.37424 -4.82422 5.09143 13.9567 -2.66056e-008 100.75 -2.42362 -3.75532 4.288 0 -2.66454e-015 68.7868 -2.43117e-005 1.01188e-005 3.85799 8.88178e-015 -1.77636e-015 -41.0075 -7.18937e-006 8.75638e-006 -1.30002e-005 1.48219e-005 8.75617 -118.485 25.9555 170.506 19.7638 -2e-006 -2.30926e-014 -68.9056 0.0006156 0.0025767 18.6534 0 5.32907e-015 -16.4608 -2.95342 7.38395 5.09144 13.9567 -1.29922e-007 98.4831 -0.68437 7.78474 4.288 3.55271e-015 3.55271e-015 51.4555 1.69851e-006 1.47412e-006 3.85799 1.77636e-015 8.88178e-016 -44.9938 -1.18096e-005 -1.3565e-005 9.10338 0.143649 0.89495 2.18204 -7.94735 1.14994 8.04389 -0.006275 -1.2e-005 3.04976 1.35435 -10.0416 8.04371 -0.006282 -1.5e-005 1.45063 1.93323 -6.54836 8.04401 -0.008338 1.50001e-005 3.15232 1.01096 -7.4979 10.669 1.06808 0.000228989 -8.28039 -0.834048 -7.86966 -4.84555 -4.46515 -8.53083 158.333 -74.8468 92.1726 19.0492 2e-006 -7e-006 77.3119 -19.5247 -118.394 10.3706 -7e-006 1.97176e-013 -84.0198 7.37913e-005 0.00146439 22.8631 -3.90798e-014 1e-006 13.6676 -12.2569 10.6232 6.48256 0.103651 0.504495 -71.9055 -2.09144 -15.3529 3.66843 -1.93623e-013 2e-006 40.107 6.66225e-006 7.61351e-006 -2.36746 -4.72866 9.39256 -139.761 75.7097 -134.314 19.0492 -7.10543e-015 1e-006 68.7932 -22.0457 103.825 10.3706 1e-006 -1e-006 -56.4143 0.000391225 0.0012882 22.8631 -3e-006 -1e-006 -18.5213 16.7367 -2.52991 6.48255 0.103651 -0.504495 -72.0086 2.0407 15.3695 3.66843 -1e-006 -1e-006 40.107 1.36083e-005 -5.57819e-006 7.52763 -0.006553 -0.000231 7.83619 2.73956 2.09882 8.47716 -0.006332 0.000396 12.8637 -1.07239 -13.0278 8.41604 -3e-006 -2.22045e-014 -77.3059 13.9408 -15.4643 -3e-006 3e-006 -5e-006 -23.1098 1.37701e-015 90 -9.49004e-006 -0.500002 -1.63949e-005 -180 90 -90 0 0 0 -113.549 -7.01671e-015 -180 2.8863 13.9448 3.88994 -22.989 1.3702e-015 90 0 0 0 -85.3358 -7.01671e-015 -180 0 0 0 -120.289 1.5138e-006 -1.90835e-005 0 0 0 133.74 -2.06429e-005 6.16229e-006 0 0 0 1.83152 -1.74399e-007 -8.28051e-008 0 0 0 -17.65 1.86848e-006 8.38027e-007 0 0 0 -26.1943 2.21366e-006 3.37833e-007 15.5776 -0.0004 -6.00001e-006 2.38542e-015 3.18055e-015 -3.18055e-015 9.4038 1.03964 -6.51623 -5.81484 -20.0443 19.8648 2.77015 -0.006069 0.002033 2.27141 -18.5129 -0.824184 9.40416 1.0396 6.51626 -5.81489 20.0466 -19.8627 2.77014 -0.006067 -0.002031 2.27082 18.5154 0.826163 
0 0.240689 -4e-006 90 -27.892 90 4.21358 -28.7019 47.5906 89.8066 -1.99088 84.4582 0 0 0 -79.4415 1.05825 -83.9093 -6.44136 -3.91491 0.0238237 128.246 4.47596 11.3133 10.3787 -0.006904 7e-005 -28.5492 -0.589078 -3.01833 10.3831 -0.008102 0.000461 2.72058 -2.68158 -1.60415 10.3906 -0.003787 0.000495 32.6111 -11.1912 13.6471 10.3905 -0.004032 0.00057 51.2195 -1.55924 -0.442116 9.00027e-006 -1.08118e-005 -8.75617 -123.083 10.122 -174.648 19.7638 7.10543e-015 1.77636e-015 -82.353 0.00023618 0.00353245 18.6534 3e-006 -1.42109e-014 -21.6637 4.30127 -3.45601 5.09143 13.9567 -9.97836e-009 100.749 -2.11329 -4.01293 4.288 0 -1.77636e-015 68.7868 -2.39695e-005 1.00215e-005 3.85799 1.77636e-015 -1.77636e-015 -41.0075 -7.22252e-006 8.55664e-006 -1.30003e-005 1.48118e-005 8.75617 -119.641 23.9293 177.055 19.7638 -2e-006 -5.32907e-015 -76.9059 0.000251222 0.00263683 18.6534 7.10543e-015 -8.88178e-016 -8.99045 -3.46404 10.5253 5.09144 13.9567 -1.71919e-007 99.2459 -0.526553 4.71308 4.288 5.32907e-015 0 46.8858 8.62909e-006 7.65445e-006 3.85799 1.77636e-015 -1.77636e-015 -44.3543 -1.26151e-005 -1.3545e-005 9.09534 0.162821 0.971434 2.86383 -8.27502 0.767059 8.04389 -0.006275 -1.2e-005 3.01329 1.71447 -10.0535 8.04371 -0.006282 -1.5e-005 1.39193 2.29028 -6.55916 8.04401 -0.008338 1.50001e-005 3.09942 1.36975 -7.50979 10.669 1.06808 0.000228992 -8.38061 -0.817598 -7.67128 -4.80785 -4.47401 -8.54748 156.079 -76.1906 94.3251 19.0492 2e-006 -7e-006 88.3939 -9.86434 -121.126 10.3706 -7e-006 2.75336e-013 -63.995 0.000326856 0.00146874 22.8631 -7.10543e-015 1e-006 -1.60478 -23.4195 4.70458 6.48256 0.103651 0.504495 -82.9661 0.987861 -15.4645 3.66843 -1.67422e-013 2e-006 40.107 6.44559e-006 7.7771e-006 -2.39185 -4.73253 9.38442 -141.727 75.2393 -132.82 19.0492 -2.4869e-014 1e-006 65.5398 -23.6453 104.5 10.3706 1e-006 -1e-006 -53.8821 0.000424768 0.001287 22.8631 -3e-006 -1e-006 -17.9401 16.9953 0.390585 6.48255 0.103651 -0.504495 -66.0743 3.65495 15.0744 3.66843 -1e-006 -1e-006 40.107 1.043e-005 -4.90427e-006 7.52763 -0.006553 -0.000231 7.98915 2.74515 2.09151 8.47716 -0.006332 0.000396 13.3155 -1.17688 -13.019 8.41604 -3e-006 -2.13163e-014 -77.7684 12.488 -16.0068 -3e-006 3e-006 -5e-006 -23.1098 1.37701e-015 90 -9.48817e-006 -0.500002 -1.63941e-005 -180 90 -90 0 0 0 -113.549 -7.01671e-015 -180 2.8863 13.9448 3.88994 -22.989 1.3702e-015 90 0 0 0 -85.3358 -7.01671e-015 -180 0 0 0 -120.289 1.88002e-006 -1.89971e-005 0 0 0 133.74 -2.07815e-005 6.46335e-006 0 0 0 1.83152 -2.12924e-007 -9.64427e-008 0 0 0 -17.65 2.27012e-006 9.79019e-007 0 0 0 -26.1943 2.64549e-006 3.56143e-007 15.5776 -0.0004 -6.00001e-006 -7.95139e-016 3.18055e-015 3.18055e-015 9.4038 1.03964 -6.51623 -5.81556 -20.0449 20.2135 2.77015 -0.006069 0.002033 2.2718 -18.497 -0.476388 9.40416 1.0396 6.51626 -5.81504 20.0471 -20.2119 2.77014 -0.006067 -0.002031 2.27087 18.4995 0.47759 
